<svg width="168" height="168" viewBox="0 0 168 168" fill="none" xmlns="http://www.w3.org/2000/svg">
<g filter="url(#filter0_d_1_1457)">
<rect x="4" width="160" height="160" rx="80" fill="#EC4242"/>
<rect x="4" width="160" height="160" rx="80" fill="url(#paint0_linear_1_1457)"/>
<rect x="5" y="1" width="158" height="158" rx="79" stroke="black" stroke-opacity="0.1" stroke-width="2"/>
<g filter="url(#filter1_di_1_1457)">
<path fill-rule="evenodd" clip-rule="evenodd" d="M84 18C83.6858 18 83.3722 18.0023 83.0591 18.007C81.9547 18.0234 81.046 17.1414 81.0296 16.0369C81.0132 14.9325 81.8952 14.0239 82.9996 14.0074C83.3325 14.0025 83.666 14 84 14C84.334 14 84.6675 14.0025 85.0004 14.0074C86.1048 14.0239 86.9868 14.9325 86.9704 16.0369C86.954 17.1414 86.0453 18.0234 84.9409 18.007C84.6278 18.0023 84.3142 18 84 18ZM62.2555 19.7552C62.663 20.7818 62.1612 21.9445 61.1345 22.352C60.5538 22.5826 59.9774 22.8216 59.4055 23.069C58.3917 23.5076 57.2144 23.0413 56.7758 22.0275C56.3372 21.0138 56.8035 19.8364 57.8173 19.3979C58.4264 19.1344 59.0402 18.8798 59.6586 18.6343C60.6853 18.2267 61.8479 18.7286 62.2555 19.7552ZM105.745 19.7552C106.152 18.7286 107.315 18.2267 108.341 18.6343C108.96 18.8798 109.574 19.1344 110.183 19.3979C111.196 19.8364 111.663 21.0138 111.224 22.0276C110.786 23.0413 109.608 23.5076 108.595 23.069C108.023 22.8216 107.446 22.5826 106.865 22.352C105.839 21.9445 105.337 20.7818 105.745 19.7552ZM40.8691 32.6739C41.6384 33.4666 41.6194 34.7328 40.8267 35.502C40.3785 35.9369 39.9369 36.3785 39.502 36.8267C38.7328 37.6193 37.4666 37.6384 36.6739 36.8691C35.8812 36.0999 35.8622 34.8337 36.6315 34.041C37.0942 33.5641 37.5641 33.0942 38.041 32.6315C38.8337 31.8622 40.0999 31.8812 40.8691 32.6739ZM127.131 32.6739C127.9 31.8812 129.166 31.8622 129.959 32.6315C130.436 33.0942 130.906 33.5641 131.369 34.041C132.138 34.8337 132.119 36.0999 131.326 36.8691C130.533 37.6384 129.267 37.6194 128.498 36.8267C128.063 36.3785 127.621 35.9369 127.173 35.502C126.381 34.7328 126.362 33.4666 127.131 32.6739ZM26.0276 52.7758C27.0413 53.2144 27.5076 54.3917 27.069 55.4055C26.8216 55.9774 26.5826 56.5538 26.352 57.1345C25.9445 58.1612 24.7818 58.663 23.7552 58.2555C22.7286 57.8479 22.2267 56.6852 22.6343 55.6586C22.8798 55.0402 23.1344 54.4264 23.3979 53.8173C23.8364 52.8035 25.0138 52.3372 26.0276 52.7758ZM141.972 52.7758C142.986 52.3372 144.164 52.8035 144.602 53.8173C144.866 54.4264 145.12 55.0402 145.366 55.6586C145.773 56.6853 145.271 57.8479 144.245 58.2555C143.218 58.663 142.056 58.1612 141.648 57.1345C141.417 56.5538 141.178 55.9774 140.931 55.4055C140.492 54.3917 140.959 53.2144 141.972 52.7758ZM20.0369 77.0296C21.1414 77.046 22.0234 77.9547 22.007 79.0591C22.0023 79.3722 22 79.6858 22 80C22 80.3142 22.0023 80.6278 22.007 80.9409C22.0234 82.0453 21.1414 82.954 20.0369 82.9704C18.9325 82.9868 18.0239 82.1048 18.0074 81.0004C18.0025 80.6675 18 80.334 18 80C18 79.666 18.0025 79.3325 18.0074 78.9996C18.0239 77.8952 18.9325 77.0132 20.0369 77.0296ZM147.963 77.0296C149.068 77.0132 149.976 77.8952 149.993 78.9996C149.998 79.3325 150 79.666 150 80C150 80.334 149.998 80.6675 149.993 81.0004C149.976 82.1048 149.068 82.9868 147.963 82.9704C146.859 82.954 145.977 82.0453 145.993 80.9409C145.998 80.6278 146 80.3142 146 80C146 79.6858 145.998 79.3722 145.993 79.0591C145.977 77.9547 146.859 77.046 147.963 77.0296ZM23.7552 101.745C24.7818 101.337 25.9445 101.839 26.352 102.865C26.5826 103.446 26.8216 104.023 27.069 104.594C27.5076 105.608 27.0413 106.786 26.0275 107.224C25.0138 107.663 23.8364 107.196 23.3979 106.183C23.1344 105.574 22.8798 104.96 22.6343 104.341C22.2267 103.315 22.7286 102.152 23.7552 101.745ZM144.245 101.745C145.271 102.152 145.773 103.315 145.366 104.341C145.12 104.96 144.866 105.574 144.602 106.183C144.164 107.196 142.986 107.663 141.972 107.224C140.959 106.786 140.492 105.608 140.931 104.595C141.178 104.023 141.417 103.446 141.648 102.865C142.056 101.839 143.218 101.337 144.245 101.745ZM36.6739 123.131C37.4666 122.362 38.7328 122.381 39.502 123.173C39.9369 123.621 40.3785 124.063 40.8267 124.498C41.6193 125.267 41.6384 126.533 40.8691 127.326C40.0999 128.119 38.8337 128.138 38.041 127.369C37.5641 126.906 37.0942 126.436 36.6315 125.959C35.8622 125.166 35.8812 123.9 36.6739 123.131ZM131.326 123.131C132.119 123.9 132.138 125.166 131.369 125.959C130.906 126.436 130.436 126.906 129.959 127.369C129.166 128.138 127.9 128.119 127.131 127.326C126.362 126.533 126.381 125.267 127.173 124.498C127.621 124.063 128.063 123.621 128.498 123.173C129.267 122.381 130.533 122.362 131.326 123.131ZM56.7758 137.972C57.2144 136.959 58.3917 136.492 59.4055 136.931C59.9774 137.178 60.5538 137.417 61.1345 137.648C62.1612 138.056 62.663 139.218 62.2555 140.245C61.8479 141.271 60.6852 141.773 59.6586 141.366C59.0402 141.12 58.4264 140.866 57.8173 140.602C56.8035 140.164 56.3372 138.986 56.7758 137.972ZM111.224 137.972C111.663 138.986 111.196 140.164 110.183 140.602C109.574 140.866 108.96 141.12 108.341 141.366C107.315 141.773 106.152 141.271 105.745 140.245C105.337 139.218 105.839 138.056 106.865 137.648C107.446 137.417 108.023 137.178 108.594 136.931C109.608 136.492 110.786 136.959 111.224 137.972ZM81.0296 143.963C81.046 142.859 81.9547 141.977 83.0591 141.993C83.3722 141.998 83.6858 142 84 142C84.3142 142 84.6278 141.998 84.9409 141.993C86.0453 141.977 86.954 142.859 86.9704 143.963C86.9868 145.068 86.1048 145.976 85.0004 145.993C84.6675 145.998 84.334 146 84 146C83.666 146 83.3325 145.998 82.9996 145.993C81.8952 145.976 81.0132 145.068 81.0296 143.963Z" fill="#BD3535"/>
</g>
<path d="M86.88 52C86.5067 54.7733 85.2267 58.24 83.04 62.4C80.8534 66.5067 78.24 70.64 75.2 74.8C72.2134 78.9067 69.4134 82.2933 66.8 84.96H82.64V73.52C84.2934 71.1733 85.9734 68.4 87.68 65.2C89.3867 62 90.5067 59.36 91.04 57.28H97.84V84.96H105.52V96.72H97.84V108H82.64V96.72H55.84V84.8C58.72 80.64 61.5734 75.6 64.4 69.68C67.2267 63.76 69.4934 57.8667 71.2 52H86.88Z" fill="#BD3535"/>
</g>
<defs>
<filter id="filter0_d_1_1457" x="0" y="0" width="168" height="168" filterUnits="userSpaceOnUse" color-interpolation-filters="sRGB">
<feFlood flood-opacity="0" result="BackgroundImageFix"/>
<feColorMatrix in="SourceAlpha" type="matrix" values="0 0 0 0 0 0 0 0 0 0 0 0 0 0 0 0 0 0 127 0" result="hardAlpha"/>
<feOffset dy="4"/>
<feGaussianBlur stdDeviation="2"/>
<feComposite in2="hardAlpha" operator="out"/>
<feColorMatrix type="matrix" values="0 0 0 0 0 0 0 0 0 0 0 0 0 0 0 0 0 0 0.25 0"/>
<feBlend mode="normal" in2="BackgroundImageFix" result="effect1_dropShadow_1_1457"/>
<feBlend mode="normal" in="SourceGraphic" in2="effect1_dropShadow_1_1457" result="shape"/>
</filter>
<filter id="filter1_di_1_1457" x="18" y="14" width="132.5" height="132.5" filterUnits="userSpaceOnUse" color-interpolation-filters="sRGB">
<feFlood flood-opacity="0" result="BackgroundImageFix"/>
<feColorMatrix in="SourceAlpha" type="matrix" values="0 0 0 0 0 0 0 0 0 0 0 0 0 0 0 0 0 0 127 0" result="hardAlpha"/>
<feOffset dx="0.5" dy="0.5"/>
<feColorMatrix type="matrix" values="0 0 0 0 0 0 0 0 0 0 0 0 0 0 0 0 0 0 0.05 0"/>
<feBlend mode="normal" in2="BackgroundImageFix" result="effect1_dropShadow_1_1457"/>
<feBlend mode="normal" in="SourceGraphic" in2="effect1_dropShadow_1_1457" result="shape"/>
<feColorMatrix in="SourceAlpha" type="matrix" values="0 0 0 0 0 0 0 0 0 0 0 0 0 0 0 0 0 0 127 0" result="hardAlpha"/>
<feOffset dy="0.5"/>
<feComposite in2="hardAlpha" operator="arithmetic" k2="-1" k3="1"/>
<feColorMatrix type="matrix" values="0 0 0 0 0.9375 0 0 0 0 0.304688 0 0 0 0 0.304688 0 0 0 1 0"/>
<feBlend mode="normal" in2="shape" result="effect2_innerShadow_1_1457"/>
</filter>
<linearGradient id="paint0_linear_1_1457" x1="84" y1="0" x2="84" y2="160" gradientUnits="userSpaceOnUse">
<stop stop-color="white" stop-opacity="0.1"/>
<stop offset="1" stop-color="white" stop-opacity="0"/>
</linearGradient>
</defs>
</svg>
